<svg xmlns="http://www.w3.org/2000/svg" viewBox="0 0 12 12"><defs><style>.cls-1,.cls-6{fill:#ef9eb6;}.cls-1,.cls-11,.cls-4,.cls-6,.cls-7,.cls-8{stroke:#e8809e;}.cls-1,.cls-11,.cls-4,.cls-5,.cls-6,.cls-7,.cls-8,.cls-9{stroke-miterlimit:10;}.cls-1,.cls-5,.cls-9{stroke-width:0.02px;}.cls-2{fill:#f9f121;}.cls-3{fill:#d7c81a;}.cls-11,.cls-4,.cls-7,.cls-8{fill:#e8809e;}.cls-4{stroke-width:0.01px;}.cls-5,.cls-9{fill:none;}.cls-5{stroke:#ef9eb6;}.cls-6{stroke-width:0.02px;}.cls-7{stroke-width:0.01px;}.cls-8{stroke-width:0.01px;}.cls-9{stroke:#c16181;}.cls-10{fill:#c16181;}.cls-11{stroke-width:0.01px;}</style></defs><title>piggyb_logo</title><g id="Layer_6" data-name="Layer 6"><path class="cls-1" d="M9.68,8.06c0-1.33-1.51-2.41-3.37-2.41S2.93,6.73,2.93,8.06A2.26,2.26,0,0,0,4.27,10,9,9,0,0,0,8.5,9.89,2.21,2.21,0,0,0,9.68,8.06Z"/><path class="cls-2" d="M5.8,7h0l.07-.08h.34l.22,0,.17,0,.07,0,0,0a.61.61,0,0,1,.08.85A.62.62,0,1,1,5.8,7Z"/><path class="cls-3" d="M5.88,7l0,0,.12-.08h.16l.22,0a.38.38,0,0,1,.13.06l0,0a.52.52,0,0,1,.09.72A.51.51,0,0,1,6,7.76.52.52,0,0,1,5.88,7Z"/><path class="cls-2" d="M6.12,7.2a.15.15,0,0,1,.06-.09.11.11,0,0,1,.08,0h0V7h.09l0,.06.06,0a.18.18,0,0,1,.05.07.19.19,0,0,1,0,.08H6.38a.15.15,0,0,0,0-.08l0,0a.08.08,0,0,0-.07,0l0,0a.13.13,0,0,0,0,.07l.09.09.06.09a.11.11,0,0,1,0,.08.12.12,0,0,1-.09.1H6.26v.06l-.08,0v0l-.06,0a.21.21,0,0,1,0-.06.14.14,0,0,1,0-.07h.12a.07.07,0,0,0,0,.06.05.05,0,0,0,0,0h0s0,0,0,0a.16.16,0,0,0,0-.08l0,0,0,0a.18.18,0,0,1-.05-.08l0,0Z"/><polyline class="cls-4" points="7.11 9.34 7.11 9.95 6.37 9.95 6.37 9.34 6.37 10.28 6.67 10.17 6.84 10.35 7.11 9.95"/><polyline class="cls-4" points="5.61 9.34 5.61 9.95 6.35 9.95 6.35 9.34 6.35 10.28 6.04 10.17 5.87 10.35 5.61 9.95"/><path class="cls-5" d="M8.91,6.81a.5.5,0,0,1-.05-.71.39.39,0,0,1,.57,0,.32.32,0,0,1,0,.46.27.27,0,0,1-.37,0,.2.2,0,0,1,0-.29.16.16,0,0,1,.23,0,.13.13,0,0,1,0,.19.11.11,0,0,1-.15,0,.08.08,0,0,1,0-.12s.07,0,.09,0"/><polyline class="cls-6" points="7.01 10.24 7.5 10.3 7.72 10.5 8.18 10.27 8.18 10.27 8.54 9.84 8.62 9.43"/><polygon class="cls-7" points="7.47 10.29 7.71 10.5 8.19 10.27 7.23 9.8 6.96 10.24 7.47 10.29"/><polyline class="cls-6" points="5.71 10.24 5.22 10.3 4.99 10.5 4.54 10.27 4.54 10.27 4.17 9.84 4.09 9.43"/><polygon class="cls-7" points="5.25 10.29 5.01 10.5 4.53 10.27 5.49 9.8 5.75 10.24 5.25 10.29"/><ellipse class="cls-1" cx="6.05" cy="4.37" rx="3.53" ry="2.56" transform="translate(-0.44 0.68) rotate(-6.22)"/><ellipse class="cls-8" cx="6" cy="4.36" rx="0.44" ry="0.25" transform="translate(-0.67 1.11) rotate(-10.04)"/><path class="cls-4" d="M4.61,5.5c0,.45-.22,1.08-.65,1a5.33,5.33,0,0,1-.51-.3L3.19,6,3,5.75l-.21-.32a2.32,2.32,0,0,1-.13-.37c0-.07-.08-.23,0-.3a1,1,0,0,1,.8-.42A1.19,1.19,0,0,1,4.61,5.5Z"/><path class="cls-4" d="M8.28,6.24a1.27,1.27,0,0,1-.82-1.15,1.34,1.34,0,0,1,1.4-1.26,1.73,1.73,0,0,1,.38,0l.18.06L9.53,4c.08,0,0,.23,0,.29a1.79,1.79,0,0,1,0,.23,1.57,1.57,0,0,1-.08.31c-.07.14-.12.28-.2.42l-.14.22-.21.25-.23.23S8.33,6.26,8.28,6.24Z"/><path d="M4.16,4.06A.34.34,0,0,1,4.28,4a.87.87,0,0,1,.83,0A.1.1,0,0,1,5.17,4a.06.06,0,0,1,0,.07c0,.09-.31,0-.39,0a1.13,1.13,0,0,0-.41,0c-.06,0-.11.07-.17.08a.06.06,0,0,1-.07,0v0A.14.14,0,0,1,4.16,4.06Z"/><path d="M7.72,3.73a.27.27,0,0,0-.13-.07.89.89,0,0,0-.82.13l0,.06a.06.06,0,0,0,0,.08c.06.08.3-.1.38-.12a1.48,1.48,0,0,1,.42,0c.06,0,.11,0,.17,0s.06,0,.06,0a0,0,0,0,0,0-.05Z"/><path class="cls-9" d="M6.57,5.38a.85.85,0,0,1-.37.15,1.24,1.24,0,0,1-.43,0"/><ellipse class="cls-8" cx="5.97" cy="4.48" rx="0.55" ry="0.36" transform="translate(-0.37 0.54) rotate(-5)"/><circle class="cls-10" cx="5.73" cy="4.55" r="0.1"/><circle class="cls-10" cx="6.21" cy="4.51" r="0.1"/><path class="cls-11" d="M2.32,3.92a2.55,2.55,0,0,0,.38-.86c0-.11.07-.21.1-.31.12-.33.27-.52.51-.58a1.36,1.36,0,0,1,.85,0,.47.47,0,0,1,.09.06c0,.05,0,.12,0,.22A3,3,0,0,1,2.56,3.94a1,1,0,0,1-.24,0Z"/><path class="cls-11" d="M9.6,2.84A2.46,2.46,0,0,1,9,2.15l-.2-.27A.79.79,0,0,0,8.1,1.5a1.42,1.42,0,0,0-.8.3.18.18,0,0,0-.06.09c0,.06,0,.13.08.2a3.06,3.06,0,0,0,2,.85,1,1,0,0,0,.24-.07Z"/></g></svg>